<svg width="35" height="35" viewBox="0 0 35 35" fill="none" xmlns="http://www.w3.org/2000/svg">
<path d="M8.95704 8.95709C12.985 4.93063 14.9975 2.91667 17.5 2.91667C20.0025 2.91667 22.015 4.92917 26.0429 8.95709C30.0708 12.985 32.0833 14.9975 32.0833 17.5C32.0833 20.0025 30.0708 22.015 26.0429 26.0429C22.015 30.0708 20.0025 32.0833 17.5 32.0833C14.9975 32.0833 12.985 30.0708 8.95704 26.0429C4.92913 22.015 2.91663 20.0025 2.91663 17.5C2.91663 14.9975 4.92913 12.985 8.95704 8.95709Z" stroke="#229CFF" stroke-width="3"/>
<path d="M23.3333 16.7708L19.4439 13.125M23.3333 16.7708L19.4439 20.4167M23.3333 16.7708H15.556C14.2581 16.7708 11.6666 17.5 11.6666 20.4167" stroke="#229CFF" stroke-width="3" stroke-linecap="round" stroke-linejoin="round"/>
</svg>
