<svg width="16" height="14" viewBox="0 0 16 14" fill="none" xmlns="http://www.w3.org/2000/svg">
<path d="M8.00003 12.3958L4.5417 14.4791C4.38892 14.5763 4.2292 14.618 4.06253 14.6041C3.89586 14.5902 3.75003 14.5347 3.62503 14.4375C3.50003 14.3402 3.40281 14.2188 3.33336 14.0733C3.26392 13.9277 3.25003 13.7644 3.2917 13.5833L4.20836 9.64579L1.14586 6.99996C1.00697 6.87496 0.920308 6.73246 0.885863 6.57246C0.851419 6.41246 0.861697 6.25635 0.916697 6.10413C0.971697 5.9519 1.05503 5.8269 1.1667 5.72913C1.27836 5.63135 1.43114 5.56885 1.62503 5.54163L5.6667 5.18746L7.2292 1.47913C7.29864 1.31246 7.40642 1.18746 7.55253 1.10413C7.69864 1.02079 7.84781 0.979126 8.00003 0.979126C8.15225 0.979126 8.30142 1.02079 8.44753 1.10413C8.59364 1.18746 8.70142 1.31246 8.77086 1.47913L10.3334 5.18746L14.375 5.54163C14.5695 5.5694 14.7223 5.6319 14.8334 5.72913C14.9445 5.82635 15.0278 5.95135 15.0834 6.10413C15.1389 6.2569 15.1495 6.41329 15.115 6.57329C15.0806 6.73329 14.9936 6.87551 14.8542 6.99996L11.7917 9.64579L12.7084 13.5833C12.75 13.7638 12.7361 13.9272 12.6667 14.0733C12.5973 14.2194 12.5 14.3408 12.375 14.4375C12.25 14.5341 12.1042 14.5897 11.9375 14.6041C11.7709 14.6186 11.6111 14.5769 11.4584 14.4791L8.00003 12.3958Z" fill="#FFC400"/>
</svg>
